<svg id="Layer_1" data-name="Layer 1" xmlns="http://www.w3.org/2000/svg" viewBox="0 0 1740.97 616.05"><defs><style>.cls-1{fill:#ffcc09;}.cls-2{fill:#fff;}</style></defs><path class="cls-1" d="M171.06,15.57q159.44-.18,318.88,0c1.95,1.93,5.14-.06,7.12,1.83,2,.25,4.29-.44,6,1,1.67.18,3.52-.14,5,.93,1.35.22,2.81.17,4,1a10.65,10.65,0,0,1,4,.95c2,.48,4,1,6,1.51,1.3.55,2.65,1,4,1.5a17.29,17.29,0,0,1,4.12,1.52c1.62.78,3.41,1.16,5,2a50.58,50.58,0,0,1,7,3l2,1a38.74,38.74,0,0,0,4,2c.92.51,1.85,1,2.79,1.52,2.32.71,4.06,2.42,6.18,3.51A134.75,134.75,0,0,1,582.25,57.7c3,1.54,5.1,4.25,7.5,6.55,2.08,2.22,4.67,4.06,6,6.9,7.21,7.38,13.16,15.95,18.5,24.77,1.08,2.11,2.8,3.85,3.51,6.18.5.93,1,1.86,1.52,2.79a34.9,34.9,0,0,0,2,4c.6,1.36,1.25,2.71,2,4l1,1.92c.68,1.67,1.22,3.4,2,5a36.43,36.43,0,0,0,2.12,5.13c.07.49.22,1.46.29,2,.6,1.33,1.09,2.72,1.69,4.06l.32,1.92c1,1.54.64,3.56,1.68,5.1l.32,1.9c1.45,1.76.2,4.36,1.7,6.1.09,1,.19,1.94.29,2.92,1.24,1.75.73,4,1,6,1.69,2.3.56,5.36,1,8,2.08,3.54.35,8.06,1,12,.21.39.65,1.17.87,1.56.13,96.67,0,193.34.07,290-.16,1.85.52,4.05-.95,5.55-.31,4,.5,8.09-.78,12-.75,2.28.47,5.06-1.19,7-.26,2,.43,4.29-1,6-.17,1.66.09,3.47-.88,5-.7,2.65-1.09,5.39-1.93,8a19,19,0,0,1-1.16,3c-.08.48-.24,1.44-.33,1.92-.6,1.33-1.09,2.72-1.69,4.06-.07.49-.22,1.46-.29,1.94-.88,1.64-1.29,3.48-2.12,5.14-.91,1.9-1.24,4-2.48,5.8a40.79,40.79,0,0,0-2.5,5.61c-.86,2.77-3.08,4.83-4,7.57-1.48,3.64-4.1,6.59-6,10-4.85,8-11.09,14.94-16.92,22.17-4.32,4-8.18,8.54-12.67,12.35-2.81,1.45-4.43,4.33-7.12,5.9-5.07,3.66-9.93,7.74-15.45,10.72-1.45.76-2.73,1.77-4.1,2.63l-2.07.89c-2.64,1.43-5.1,3.18-7.78,4.56a32.63,32.63,0,0,0-7,3c-2,1-4.26,1.43-6.23,2.55-.94.37-1.89.7-2.85,1s-2,.67-3,.95c-1.36.51-2.74,1-4,1.56l-1.91.34a19.28,19.28,0,0,1-3,1.16,14.07,14.07,0,0,1-4,.89c-1.19.81-2.66.75-4,1-1.81,1.36-4.37.17-6.11,1.65-1.69.23-3.66-.27-5,1.07-2.63.39-5.74-.78-8,1-2.63.1-5.26.05-7.88.15-1.21,1.28-3,.86-4.56,1-99.48-.12-199,.09-298.44-.11-2.26-1.77-5.36-.61-8-1-2.26-2.14-5.84.25-8.12-1.83-2-.25-4.3.42-6-1-1.68-.19-3.53.13-5-.93-1.36-.24-2.82-.18-4-1-1.36-.25-2.86-.13-4-1.05l-1.91-.32c-1.93-1.05-4.25-1-6.17-2.15a24,24,0,0,0-2.85-1c-1.72-.66-3.49-1.18-5.14-2-1.88-1-4.09-1.18-5.76-2.53-2-.94-4.21-1.49-6.23-2.44-2.76-1.24-5.17-3.06-7.78-4.54l-2.08-.89c-3.62-2.42-7.38-4.61-11-7.06-4.77-3.51-9.78-6.77-13.9-11.06-5-3.05-8.52-8.08-12.9-12-3.41-2.68-5.18-6.77-8.54-9.5-4-5.69-8.52-11.06-12-17.17a60.38,60.38,0,0,1-4-7l-.93-2c-1.49-2.22-3.15-4.38-3.53-7.11l-1.55-2.82a60.37,60.37,0,0,1-3-7A20.12,20.12,0,0,1,33.2,522c-.37-1-.7-2-1-3-.49-1.35-.92-2.7-1.42-4a14.45,14.45,0,0,0-1.11-3c-.1-.48-.28-1.43-.38-1.91a11.83,11.83,0,0,1-1-4,42.41,42.41,0,0,1-2-9c-1.64-2.08.13-5.13-1.7-7.1-.08-2-.1-3.94-.2-5.9-1.08-1.3-.87-3-.92-4.55.12-105.14-.09-210.29.11-315.43,1.77-2.26.6-5.36,1-8,1.92-1.95,0-5.11,1.81-7.11.08-1,.17-1.93.26-2.89,1.31-2.49,1-5.48,2.14-8.08.78-1.6.61-3.5,1.55-5,.09-.47.26-1.42.34-1.9a16.93,16.93,0,0,0,1.15-3c.35-1,.67-2,1-3,.48-1.3.87-2.63,1.43-3.9,1.34-3,2.24-6.21,4-9,1.13-2.42,2.39-4.77,3.51-7.19.5-1,1-1.89,1.51-2.83l.9-2c.86-1.38,1.86-2.67,2.63-4.1C50,90.25,53.92,85,57.7,79.76c2.43-1.71,3.18-4.8,5.59-6.54,2-1.67,2.86-4.34,4.94-6,3.56-3.12,6.33-7.2,10.52-9.53a132.79,132.79,0,0,1,25.18-18.91c1.44-.77,2.72-1.78,4.1-2.63l2-.91c2-1.08,4-2.07,6-3l2.8-1.51a53.7,53.7,0,0,1,7-3c2-1.09,4.26-1.46,6.23-2.6a28.22,28.22,0,0,1,2.85-1c1-.35,2-.69,3-1,1.64-.69,3.53-.58,5.08-1.51l1.9-.34c1.55-1,3.58-.62,5.11-1.69l2.89-.27c1.72-1.56,4.41-.17,6.11-1.78,1.62-.07,3.25-.11,4.88-.18C165.91,15.51,169.1,17.5,171.06,15.57Zm172.76,99.95c-2.95,2.53-6.67,4.06-9.21,7.07-3,3.34-6.73,6-9.05,9.92-2.11,3.31-4.77,6.46-5.52,10.43-3.31,6-3.81,12.94-4.83,19.54-.19,13.93,5.18,27.62,13.87,38.4a59.63,59.63,0,0,0,39.44,19.8c10.64.6,21.23-2.29,30.61-7.19,4.42-3,8.56-6.29,12.78-9.54,3-4.42,7.27-8,9.08-13.19l1.59-1.62a20.66,20.66,0,0,1,2-5.55,53.25,53.25,0,0,0-.58-39.67c-.53-2.95-2.51-5.3-3.49-8.08-4.05-5.4-7.86-11.22-13.58-15-3.82-3.24-8-6.36-12.88-7.79-9-4.69-19.56-5.44-29.57-4.61A70.37,70.37,0,0,0,343.82,115.52Zm41,134.21A64.08,64.08,0,0,0,368,255c-4.36,1-7.76,4-11.67,6-3.72,2.68-7.63,5.2-10.72,8.63-6.1,6-12.18,12.51-15.6,20.52a10.11,10.11,0,0,0-2.93,5.78c-4.25,8.55-6.06,18.08-6.86,27.52q.09,61,0,122c.39,9.54-1.62,18.95-3.22,28.31a15,15,0,0,1-2.64-1.09,67.32,67.32,0,0,0-12-20.1c-3.66-3.09-6.37-7.3-10.54-9.72-9.67-7.92-22-12.3-34.33-13.6-8.11-.24-16.23.1-24.34-.19q.35,54.74,0,109.48c3.92-1.6,8.12-.56,12.17-.37,2.74-.62,5.44.27,8.17.41,25.31-.06,50.62,0,75.93,0,4.75-.08,9.55.37,14.24-.57,11.85-.68,23.08-5.11,33.49-10.55q2.28-1.76,4.71-3.3c10.38-6.73,18.09-16.67,24.58-27,1.15-2.71,2.92-5.18,3.52-8.1,2.3-3.94,2.95-8.52,4.06-12.87a46.37,46.37,0,0,0,1.76-14.72q0-106.62,0-213.24C405.49,248.71,395,247.18,384.81,249.73Z" transform="translate(-23.47 -15.48)"/><path class="cls-2" d="M793.87,63.28c2.68-1.32,5.8-.51,8.68-.73,3.09-.24,5.9,1.49,9,1.05,2.69,1.15,5.61,1.55,8.42,2.34,3.92,1.56,8.07,2.75,11.42,5.44,4.39,1.77,7.23,5.61,11.11,8.13,5.26,6,10.2,12.6,12.94,20.2a62.94,62.94,0,0,1,2.44,10.21,54.4,54.4,0,0,1-.36,20.85,28.74,28.74,0,0,0-.85,4,38.85,38.85,0,0,1-2.13,5.52c-.69,2.86-2.58,5.16-4,7.68l-1,1.32A52.17,52.17,0,0,1,830,167.16c-2.67,1.31-5.3,2.66-7.92,4.05-6.78,1.58-13.57,3.89-20.62,3.45A62.28,62.28,0,0,1,779,171.19c-2.66-1.31-5.26-2.74-7.94-4-8.57-4.3-15.38-11.46-20.72-19.32-1.53-3.91-4.14-7.31-5.23-11.4a63.48,63.48,0,0,1-1.68-28.31,18.22,18.22,0,0,0,.91-3.86c.91-3.26,2.29-6.34,3.43-9.52.6-.81,1.21-1.62,1.81-2.44.37-.9.75-1.79,1.16-2.69,1.61-3.57,4.88-5.87,6.89-9.16,1.39-1.95,3.85-2.69,5.35-4.55,2-2.44,5.08-3.47,7.62-5.21,3.06-2.41,6.91-3.3,10.43-4.79C785.29,65.05,789.41,63.25,793.87,63.28Z" transform="translate(-23.47 -15.48)"/><path class="cls-2" d="M937.37,63.6c5.58-.48,11.2-1.88,16.84-.64,2.24.59,4.63.4,6.82,1.28a18.44,18.44,0,0,1,4.06.84c1.66.56,3.33,1.1,5,1.69a57.65,57.65,0,0,1,26.54,20c2.56,4.3,6,8.24,7,13.3a38.51,38.51,0,0,0,1.26,3.9,70.33,70.33,0,0,1,2.33,17.89c-1.62,2.45-.07,5.59-1.46,8.12a22.76,22.76,0,0,1-1.77,6.79c-1.74,5.74-5.15,10.77-8.42,15.73-4.28,4.42-8.54,8.87-13.48,12.56A46.81,46.81,0,0,0,977,168c-2.23,1.28-4.79,1.79-7,3.11a67.33,67.33,0,0,1-7.43,2.1c-2.24.64-4.64.46-6.8,1.35a91.85,91.85,0,0,1-19.54-.92,43.65,43.65,0,0,0-4.7-1.29c-2.32-.23-4.35-1.43-6.52-2.12-8.48-4-16.72-9.21-22.31-16.82-4.37-4.21-5.93-10.22-9-15.29-1.1-4.48-2.9-8.94-2.61-13.63-.14-1.73.52-3.78-.89-5.15,1.68-3,.55-6.62,1-9.89,1-3.13,1.29-6.43,2.65-9.47a77.09,77.09,0,0,1,3.46-7.78c3.61-6.77,9.17-12.09,14.63-17.35,5.08-3,10.07-6.45,15.79-8.24C930.71,65,934.23,64.91,937.37,63.6Z" transform="translate(-23.47 -15.48)"/><path class="cls-2" d="M1694.46,73.55c1.91-.72,4-.55,6-.71a20.09,20.09,0,0,1,11.67.06,28.89,28.89,0,0,1,8.76,1.08c2,.69,4.1,1.11,6.16,1.69a22.47,22.47,0,0,0,2.93,1.51,22,22,0,0,1,5.13,2.18,90.68,90.68,0,0,1,12.53,9,57.34,57.34,0,0,1,15.59,27.34,15.68,15.68,0,0,0,1.15,3.29c0,6.17.12,12.35,0,18.51-1.88,7.51-4.29,15-8.91,21.35-1.87,3.54-5,6.06-7.74,8.9a50.35,50.35,0,0,1-15.82,11.07c-5.41,1.84-10.72,4.5-16.56,4.6-2.79,1.21-5.91.48-8.83.66-3.23-.23-6.64.62-9.69-.69a33,33,0,0,1-10.8-2.52,59.59,59.59,0,0,1-24.46-16.33c-2.52-3.53-5.17-7-7.36-10.71q-1.85-4.35-3.36-8.82c-.36-.93-.7-1.86-1-2.77,0-.7-.1-2.1-.14-2.79-1.64-2.47.24-5.7-1.48-8.07,0-2.3-.59-4.78.67-6.86a37.57,37.57,0,0,1,1.93-12.57c1.46-3.83,2.88-7.67,4.72-11.35a66.69,66.69,0,0,1,15.53-17c1.31-.88,2.66-1.76,3.91-2.77,3.36-1.55,6.59-3.44,10.12-4.64C1688.12,75.13,1691.15,73.77,1694.46,73.55Z" transform="translate(-23.47 -15.48)"/><path class="cls-2" d="M343.82,115.52a70.37,70.37,0,0,1,20.64-7.1c10-.83,20.52-.08,29.57,4.61,4.84,1.43,9.06,4.55,12.88,7.79,5.72,3.8,9.53,9.62,13.58,15,1,2.78,3,5.13,3.49,8.08a53.25,53.25,0,0,1,.58,39.67,20.66,20.66,0,0,0-2,5.55L421,190.76c-1.81,5.15-6.09,8.77-9.08,13.19-4.22,3.25-8.36,6.55-12.78,9.54-9.38,4.9-20,7.79-30.61,7.19a59.63,59.63,0,0,1-39.44-19.8c-8.69-10.78-14.06-24.47-13.87-38.4,1-6.6,1.52-13.58,4.83-19.54.75-4,3.41-7.12,5.52-10.43,2.32-3.9,6.07-6.58,9.05-9.92C337.15,119.58,340.87,118.05,343.82,115.52Z" transform="translate(-23.47 -15.48)"/><path class="cls-2" d="M784,214.07c6.88-1.3,13.82-3.21,20.89-2.54,1.75,1.12,3.89.64,5.85.87,1.18.44,2.39.74,3.62,1.07s2.36.46,3.56.64a13.71,13.71,0,0,0,4.11,1.64q4.56,2.64,9,5.44c5.31,5,11,10.08,13.67,17.09,1.31,2.88,2.38,5.85,3.41,8.84a29,29,0,0,0,1,3.51c.05,1.72.06,3.45.13,5.18a6.47,6.47,0,0,1,.78,2.72q0,101.49,0,203a6.29,6.29,0,0,1-.76,2.69c-.1,2,.08,4.17-.74,6.11-1.71,7.48-4.69,15-10.1,20.6-1.64,3.74-5.74,5.29-8.37,8.17-1.73,1-3.38,2.1-5.15,3-5.52,2.74-11.5,5.19-17.77,5.06-3.47,1.43-7.36.51-11,.65-4-1.08-8.29-1-12.23-2.55-1-.53-1.91-1-2.87-1.52-8.1-2.47-14-8.93-19.62-15a47.85,47.85,0,0,1-4.71-8.63c-.46-.9-.92-1.79-1.36-2.68-.63-2.52-1.67-4.9-2.18-7.44-.9-3.08-.58-6.38-1.42-9.49q-.09-100.53,0-201.06c.84-4.51.63-9.23,2.38-13.55.72-2.86,2.26-5.45,2.85-8.34a103.15,103.15,0,0,1,8.55-12.1c4.81-3.79,9.53-8.07,15.46-10C782,215,783,214.55,784,214.07Z" transform="translate(-23.47 -15.48)"/><path class="cls-2" d="M939.16,212.38c4.94,0,10.15-2.35,14.94-.19,4.41-.23,8.66,1,12.83,2.35,6.65,2.27,12.22,6.61,17.53,11.07a15.36,15.36,0,0,1,1.68,2.57,39.58,39.58,0,0,1,4.69,5.79,62.16,62.16,0,0,0,3.46,7c.38,1.37.85,2.71,1.35,4.06.29,1.12.56,2.25.83,3.39.53,1.89.44,3.94,1.31,5.74.16,82.78,0,165.56.08,248.33-.09,2,.35,4.18-.79,6-.31,2.9.55,6-.8,8.76-.13,1.7.07,3.52-.84,5.07-.08,1.2-.13,2.4-.17,3.61-1.09,2.64-1.39,5.52-2.37,8.2-.41,2.56-1.47,5-2,7.47-3,8.07-6.43,16-11.2,23.17a52.23,52.23,0,0,1-6.24,8.32c-1.43,2.84-4.21,4.6-6.26,6.94-2.92,3.27-6.51,5.81-9.88,8.56-3.5,1.95-6.53,4.68-10.23,6.28-2.12.77-3.74,2.5-6,3A64.68,64.68,0,0,1,931,602.06a34.14,34.14,0,0,1-5.92,1.69c-5.35,2.11-11.15,2.71-16.71,3.93-11.22,1.32-22.54.66-33.82.84-7,0-13.72-1.83-20.48-3.32-4.92-2.48-10.33-4.09-14.8-7.38A40.33,40.33,0,0,1,823.72,580c-.41-1.37-.88-2.71-1.37-4-.3-1.14-.56-2.28-.8-3.41-1.1-2.54-.38-5.39-.56-8,.21-3.2-.59-6.58.66-9.63a21.81,21.81,0,0,1,.69-3.94c.49-1.34.95-2.69,1.35-4.06a68.77,68.77,0,0,0,3.45-6.93,40,40,0,0,1,21.8-16.46c8.14-3.33,17-.83,25.38-2.71a29,29,0,0,0,4.6-.69c4.24-1.42,8.8-2.83,11.87-6.29,2.78-2.47,4.2-6,5.84-9.22.73-2.57.93-5.3,2-7.78,0-1.23.09-2.45.16-3.67,1.64-3.42.38-7.4.85-11a5.7,5.7,0,0,0,.8-3.54q-.08-112.08,0-224.16a6.51,6.51,0,0,1,.72-3.47c.2-3.24,1.6-6.2,2.45-9.29.87-3.47,3-6.43,4.88-9.4l1-1.5c3.94-5.07,8.72-9.8,14.53-12.69,2-1,4-2.07,6-3.11,1.32-.36,2.65-.76,4-1.15C935.69,213.28,937.45,212.9,939.16,212.38Z" transform="translate(-23.47 -15.48)"/><path class="cls-2" d="M1159.24,212.37c4-.25,8.15.36,12.09-.87,4.44-.24,8.91-.07,13.38,0,3.34,1.62,7.17.25,10.68,1.13a30.87,30.87,0,0,0,6.08.69c3.54,1,7.3,1,10.83,2.17a68.24,68.24,0,0,1,6.67,1.76c1.68.56,3.36,1.1,5,1.76,1.32.36,2.65.76,4,1.11a144.07,144.07,0,0,1,31.84,16.45c7.31,5.48,14.55,11.12,20.66,18,2.82,3.91,6.44,7.16,9.09,11.22.83,1.13,1.7,2.25,2.44,3.47l1.23,1.5a19.28,19.28,0,0,0,2.55,4.3c.45,1,1,2,1.5,3.07a52.26,52.26,0,0,1,6.5,13c.44,1,.92,2,1.43,2.91,1.19,3.13,2.49,6.21,3.41,9.43.95,4.64,2.49,9.17,3.55,13.78l.2,2.62c1,1.89.71,4.05.85,6.11,1.73,3.19-.27,7.08,1.5,10.28.1,5.47.14,10.95,0,16.42-1.3,2.4-.45,5.31-1.68,7.76a54.68,54.68,0,0,1-5.46,12c-7.27,11.76-20.52,18.55-33.79,20.95-2.37,0-4.79-.09-7,.9q-68.79.13-137.59,0c.8,1.27,1.64,2.55,2.56,3.78.43,1,.89,2,1.38,3,3.45,4.08,6.77,8.39,11.3,11.39,6,4.87,13.42,7.3,20.58,9.89,4.47.5,8.76,2.13,13.31,2.07,1.91.94,4.07.61,6.14.67,5.67-.11,11.34.13,17-.13,1.86-1,4-.61,6-.78,5.28-.56,10.41-2,15.59-3.17,3.39-.7,6.63-1.95,10-2.92,2.62-1.07,5.45-1.65,7.93-3.11a40.81,40.81,0,0,1,31-1.2,25.4,25.4,0,0,1,3.05,1.11A38.36,38.36,0,0,1,1293.28,434c1.25,4.07,3.11,8.12,2.81,12.48-.3,3.59.64,7.38-.66,10.83a21.14,21.14,0,0,1-1.22,5.65c-2.7,6.4-6.37,13-12.27,17-3.61,3.26-7.82,5.64-11.9,8.22-4.09,1.6-7.76,4.15-11.94,5.52a23,23,0,0,1-4,1.57c-1.11.48-2.22,1-3.28,1.49-1.3.32-2.55.69-3.8,1.09-2,.89-4.1,1.4-6.08,2.26-13.55,3.71-27.43,6.91-41.53,7.05-7,1.52-14.16.52-21.21.7-2.72-1.34-5.81-.57-8.7-.76a195.79,195.79,0,0,1-31.17-5.73c-2.42-.87-5-1.27-7.39-2.1-1.25-.53-2.54-1-3.79-1.39-3.35-1.26-6.62-2.73-10-3.77-2-1-4-2.06-6-3.12-8.21-3.51-15.61-8.51-23-13.45-9.75-6.45-17.3-15.43-25.81-23.3-.15-.43-.43-1.29-.57-1.72-3.9-3.6-6.42-8.37-9.83-12.38-.46-1-.88-1.93-1.29-2.89l-1.19-1.26c-.72-2.69-2.94-4.54-4-7.06-2.17-5.16-5.25-9.93-6.79-15.34a154.38,154.38,0,0,1-7.28-25.08c-.09-1.21-.16-2.41-.2-3.61-1-2.15-.61-4.57-1.2-6.8-1.17-4.42.3-9.12-1.24-13.48-.06-4.33-.56-8.78.71-13a87.39,87.39,0,0,1,2.56-22c0-1,.11-2.08.19-3.12.71-1.73.76-3.63,1.25-5.42.73-1.94,1.15-4,1.82-5.95,1.2-3.41,2.39-6.84,3.37-10.32.62-2,1.54-3.84,2.2-5.8,3.09-5.55,5.21-11.65,8.87-16.88,1.09-3,3.3-5.26,4.9-7.93a63.15,63.15,0,0,1,7-9.11c1.53-3.09,4.78-4.84,6.41-7.9A148.37,148.37,0,0,1,1123.1,221l2.72-.8c1.7-.51,3.4-1.06,5.09-1.68,2-.66,4.09-1.12,6.14-1.73,3.65-1.07,7.4-1.72,11.08-2.67,1.69-.15,3.52.06,5.07-.84C1155.2,213.06,1157.4,213.46,1159.24,212.37Zm2.12,78.1a60.27,60.27,0,0,0-14.43,7.42c-2.67,2.27-5.66,4.18-7.86,6.95-2.09,3.23-4.77,6.05-6.8,9.35-1,2.38-2.24,4.66-3.43,6.95-.66,2-1.59,3.88-2.34,5.83-.17.79-.52,2.38-.7,3.18,32,.1,64,0,95.94,0,0-1.65-.07-3.3-.11-4.95a13.79,13.79,0,0,1-1-3.9,48.85,48.85,0,0,0-7-14.85c-2.63-3.05-5.66-5.72-8.46-8.6-3.46-1.77-6.37-4.6-10.24-5.54l-3-1.39c-4.34-1.19-8.86-1.46-13.17-2.55C1172.92,288.15,1167.14,289.61,1161.36,290.47Z" transform="translate(-23.47 -15.48)"/><path class="cls-2" d="M1384.2,212.39c3.85.13,7.55-1.55,11.43-.94,4.47,1,9.09,1.09,13.45,2.66a44.72,44.72,0,0,1,27.44,25.72c3.11-3.73,7.23-6.45,11.27-9.09,8.22-5.19,16.9-9.86,26.26-12.65,2.26-1,4.74-1.41,7.09-2.22a61.31,61.31,0,0,0,6.91-1.75c10.82-1.56,21.68-3.18,32.64-2.59l1.5.66a73.69,73.69,0,0,1,15.4,1.55c4.27.45,8.39,1.79,12.51,3,1.24.5,2.54.95,3.83,1.43,15.36,4.71,29,14.3,40,25.85,2.43,3.34,5.27,6.4,7.53,9.88l1,1.43c1.58,2.17,2.74,4.61,4.37,6.76,1.34,3,2.88,6,4.42,8.9.57,1.94,1.59,3.74,2,5.74.42.92.87,1.85,1.34,2.77.9,2.81,1.72,5.66,2.59,8.48,1.47,3.6,1.39,7.6,2.59,11.28.13,1.74,0,3.6.87,5.19-.31,4.11,1.37,8,1,12.1q-.06,72.48,0,145c-.14,2.55.43,5.26-.67,7.67a65.87,65.87,0,0,1-2.85,10l-.92,1.93a50.14,50.14,0,0,1-16.22,18.79c-2.7,1.24-5,3.29-7.9,4a14.2,14.2,0,0,1-4.94,1.72,29.79,29.79,0,0,1-8.65,1.66c-6.71,1.69-13.72,0-20.38-1.17-2.68-1.06-5.55-1.64-8-3.18-1.4-.68-2.8-1.33-4.19-2-3.13-2.1-5.89-4.65-8.88-6.9-2.21-2.93-4.71-5.69-6.41-8.95-.28-.34-.84-1-1.13-1.34-2.46-5.52-5.44-11.1-5.43-17.29a5.86,5.86,0,0,0-.73-2.82c-.21-41.05,0-82.1-.08-123.14.31-5-1.07-9.77-2.43-14.47-3.56-11.18-12.8-20.09-23.77-23.91a39.86,39.86,0,0,1-6.25-1.75c-4.78-.1-9.55-.08-14.31-.06a38.37,38.37,0,0,0-27.89,17.37c-.4.89-.79,1.79-1.18,2.68a67,67,0,0,0-3.55,8.75c-1.44,4.33-.93,8.91-1,13.38q0,54,0,108c-.06,3.65.36,7.38-.77,10.91.34,4.6-.81,9-1.9,13.41-.89,2.76-2.4,5.26-3.46,7.95-.85,1.43-1.79,2.81-2.63,4.25a53.24,53.24,0,0,1-13,13A40.76,40.76,0,0,0,1417,503c-5.07,2.06-10.32,4-15.84,4.22-2.11.91-4.43.72-6.64.74-9.09-.36-18.45-2.11-26.13-7.31a43.82,43.82,0,0,1-13.86-13.1c-1.73-2.94-4.39-5.5-4.79-9-.47-.92-.92-1.84-1.36-2.74-.29-1-.6-2-.94-3l-.2-2.65c-1-1.55-.76-3.38-.91-5.09a6.46,6.46,0,0,1-.73-3.5q.09-102.12,0-204.23c.93-4.94,1.39-10.05,3.21-14.77,1.38-5.53,5.09-10,8.13-14.67,3.56-3.78,7.33-7.52,12.08-9.78,2.63-1.34,5.26-2.72,7.93-4A37.63,37.63,0,0,0,1384.2,212.39Z" transform="translate(-23.47 -15.48)"/><path class="cls-2" d="M1701.13,212c6.57-1.81,13.17.72,19.74,1.21,2.34.87,4.64,1.9,7.07,2.6,4.26,2.27,8.51,4.76,11.94,8.22a7.67,7.67,0,0,1,4.12,4.09c3.47,3.76,5.86,8.35,8.21,12.86.39,1.29.77,2.57,1.22,3.85,1.32,3.32,1,7,2.23,10.32.14,56.43,0,112.86.06,169.29-.08,13.34.16,26.7-.12,40-1,1.57-.71,3.44-.82,5.19-2.9,12.64-10.27,24.64-21.71,31.23-2.41,1-4.7,2.22-7,3.42a43.3,43.3,0,0,0-5.19,1.74c-2.79.84-5.77.75-8.51,1.68-4,0-8.1.74-11.91-.53-3.9-.09-7.64-1.28-11.34-2.33-2.78-1.25-5.34-2.95-8.22-3.95A49.53,49.53,0,0,1,1661.78,479c-.59-2.19-1.3-4.35-2-6.5a54.66,54.66,0,0,0-1.36-5.75c-.25-70.42,0-140.84-.12-211.26-.1-2.52.86-4.91,1-7.41.31-.94.61-1.89.9-2.84a40.93,40.93,0,0,1,6-13c1.93-3.56,5.16-6.08,7.9-9a19.82,19.82,0,0,1,5.86-4.27c2.54-1.51,4.92-3.35,7.88-4A51.72,51.72,0,0,1,1701.13,212Z" transform="translate(-23.47 -15.48)"/><path class="cls-2" d="M384.81,249.73c10.14-2.55,20.68-1,31-1.51q-.13,106.62,0,213.24A46.37,46.37,0,0,1,414,476.18c-1.11,4.35-1.76,8.93-4.06,12.87-.6,2.92-2.37,5.39-3.52,8.1-6.49,10.33-14.2,20.27-24.58,27q-2.43,1.54-4.71,3.3c-10.41,5.44-21.64,9.87-33.49,10.55-4.69.94-9.49.49-14.24.57-25.31.06-50.62,0-75.93,0-2.73-.14-5.43-1-8.17-.41-4.05-.19-8.25-1.23-12.17.37q.22-54.73,0-109.48c8.11.29,16.23-.05,24.34.19,12.36,1.3,24.66,5.68,34.33,13.6,4.17,2.42,6.88,6.63,10.54,9.72a67.32,67.32,0,0,1,12,20.1,15,15,0,0,0,2.64,1.09c1.6-9.36,3.61-18.77,3.22-28.31q0-61,0-122c.8-9.44,2.61-19,6.86-27.52a10.11,10.11,0,0,1,2.93-5.78c3.42-8,9.5-14.48,15.6-20.52,3.09-3.43,7-5.95,10.72-8.63,3.91-2,7.31-5,11.67-6A64.08,64.08,0,0,1,384.81,249.73Z" transform="translate(-23.47 -15.48)"/></svg>