<svg id="Layer_1" data-name="Layer 1" xmlns="http://www.w3.org/2000/svg" viewBox="0 0 1740.92 614.77"><defs><style>.cls-1{fill:#ffcc09;}.cls-2{fill:#3f3356;}.cls-3{fill:#fff;}.cls-4{fill:#ecebef;}.cls-5{fill:#d4dee8;}</style></defs><path class="cls-1" d="M151.4,20.29c7.21-1.36,14.42-3.22,21.79-3.27l-.23-.83c4.16-.27,8.32-.66,12.5-.68h290c4.18,0,8.33.42,12.5.65v.95c11.08.29,22,3.22,32.64,6.17,5,1.66,10,3.31,14.74,5.43,3.07,1.14,6,2.61,9,4A166.82,166.82,0,0,1,623.89,116c10.26,23.38,14.44,49.13,13.79,74.58V444.48c-.09,13,.51,26.07-1.27,39a166.23,166.23,0,0,1-98,132.77c-2,.85-3.95,1.68-5.91,2.53-1.39.48-2.77,1-4.14,1.47-4.25,1.55-8.54,3-12.91,4.13a165.26,165.26,0,0,1-47,5.86H201.41c-8,0-15.95.13-23.91-.3a194.93,194.93,0,0,1-31.09-5.27c-2.29-.75-4.61-1.38-6.93-2-3.72-1.31-7.47-2.56-11.16-3.95-1.9-.8-3.8-1.6-5.66-2.47A165.81,165.81,0,0,1,23.52,468.52q0-145,0-290A165.25,165.25,0,0,1,50.73,90.77a168.16,168.16,0,0,1,64.71-57.5c3.39-1.53,6.69-3.27,10.18-4.57q2.46-1.08,5-2c3.2-1.28,6.51-2.24,9.75-3.4C144,22.23,147.71,21.27,151.4,20.29Zm203,88.95a57.72,57.72,0,0,0-23.5,14.62c-11.48,11.28-17.47,27.63-16.7,43.65a58.83,58.83,0,0,0,17.27,38,57.15,57.15,0,0,0,40,16.55c14.7.3,29.21-5.7,39.9-15.71,11.2-10.77,18.28-26.15,17.86-41.81a55.57,55.57,0,0,0-10.77-34,57.82,57.82,0,0,0-38.91-23.43C371.1,106.5,362.5,106.59,354.38,109.24ZM380,249.14a80,80,0,0,0-49.51,36.58c-6,9.66-9.29,20.66-11.2,31.78-.54,44.22-.08,88.45-.29,132.68a192.5,192.5,0,0,1-3.33,23.51,9.16,9.16,0,0,0-1.78-5.45l.26-.63c-3.3-5.8-6.49-11.75-11.08-16.66-12.48-14.47-31.41-23.67-50.63-23.14-6.9-.08-13.79.06-20.68,0q.07,55.72,0,111.45c1.57,0,3.13,0,4.7,0,3.69-.23,7.4.28,11.09-.11,2.44,1.22,5.26.64,7.89.76h82.94c9.2-.68,18.46-1.84,27.08-5.35,30.19-11,51.87-41.88,51.54-74.08q.07-106.77,0-213.55C404.74,247.29,392.14,245.84,380,249.14Z" transform="translate(-23.51 -15.51)"/><path class="cls-2" d="M773.79,68.74c9.4-3.91,19.5-6.55,29.72-6.18,8.53,1.21,17.19,2.93,25,6.88,3.09,2.34,7,3.6,9.6,6.53a34.42,34.42,0,0,0,4.49,3.56c6.1,7,11.72,14.8,14.1,23.92.47,2.13.87,4.28,1.25,6.44,1.46,5.41.4,11.19.6,16.75a54.6,54.6,0,0,0-1.79,8.09,55.85,55.85,0,0,1-30.6,34.38c-5.4,3.25-11.8,3.87-17.82,5.26a67.4,67.4,0,0,1-28-2.8c-9.59-3.85-18.75-9.32-25.29-17.49s-11.24-17.9-12-28.35c-1.26-5.8-.09-11.66.4-17.45a75.76,75.76,0,0,1,4.4-13.47c2.44-3.06,3.34-7.11,6.2-9.86,2.6-2.45,4-6,7.41-7.58C764.82,73.57,769.54,71.46,773.79,68.74Z" transform="translate(-23.51 -15.51)"/><path class="cls-2" d="M940.6,63.41c4.81-1.08,10.14-1.55,14.87,0,13.14.85,25.44,7.22,35,16.13,4.16,3.92,7.14,8.85,10.29,13.56,2.17,3.32,2.78,7.3,4.19,11,1.48,4.33,1.29,9,2.32,13.38.63,2.74-.74,5.34-.79,8-.49,9.79-5.24,18.65-10.49,26.66-4.19,4-8,8.57-12.75,12-16.11,11.37-37.71,13.44-56.11,6.92-11.7-4.57-22.17-12.61-28.66-23.43-1.23-2.51-2.33-5.08-3.69-7.51-1.92-3.24-2.25-7-3.28-10.59-1.07-3.38.5-7.11-1.13-10.34,1.4-3,.45-6.49.83-9.71a57,57,0,0,1,10.08-23.33c2.91-4,6.63-7.33,10.18-10.77C920,69.19,930,64.53,940.6,63.41Z" transform="translate(-23.51 -15.51)"/><path class="cls-2" d="M1688.12,75.1c4.89-1.91,10.21-2,15.34-2.89,4.4-.7,8.66.87,13,.9,14.76,2.43,28.76,10.58,37.56,22.78,5.21,6.78,7.94,15,10.31,23.09.06,5.84.06,11.68,0,17.52a59.37,59.37,0,0,1-10.83,25.19c-6.68,7.43-14.24,14.67-23.91,17.89-11.89,5.24-25.47,5.74-38,3-13-3.5-25.44-10.82-33-22.16a47.33,47.33,0,0,1-9.8-27.95,9.5,9.5,0,0,1,0-8,38.32,38.32,0,0,1,3.13-15.62A47.61,47.61,0,0,1,1665,89C1671.07,82.17,1679.57,78,1688.12,75.1Z" transform="translate(-23.51 -15.51)"/><path class="cls-3" d="M354.38,109.24c8.12-2.65,16.72-2.74,25.16-2.14a57.82,57.82,0,0,1,38.91,23.43,55.57,55.57,0,0,1,10.77,34c.42,15.66-6.66,31-17.86,41.81-10.69,10-25.2,16-39.9,15.71a57.15,57.15,0,0,1-40-16.55,58.83,58.83,0,0,1-17.27-38c-.77-16,5.22-32.37,16.7-43.65A57.72,57.72,0,0,1,354.38,109.24Z" transform="translate(-23.51 -15.51)"/><path class="cls-2" d="M777.88,216.72c7.32-3.65,15.61-4.74,23.66-5.39,7.65,1,15.66,1.74,22.54,5.56,2.95,2,6.43,3.37,8.9,6.05,3.08,3.26,6.67,6.13,9,10a78.87,78.87,0,0,1,6.21,14.07,28.68,28.68,0,0,1,1.11,8.7,8.48,8.48,0,0,1,.75,2.71q0,97.55,0,195.1c.47,13.29-2.63,27.43-11.62,37.64-2,3.38-5.54,5.19-8.32,7.78-16,11.1-38.36,11.87-55.05,2-8.93-5.73-16.39-14.1-19.81-24.27-3.79-9.58-3.61-20-3.48-30.13q0-89.52,0-179c.1-4-.42-8,.59-11.92.73-11.35,5.92-22.17,13.62-30.46A72.07,72.07,0,0,1,777.88,216.72Z" transform="translate(-23.51 -15.51)"/><path class="cls-2" d="M940.4,212.37c4.5-.45,9.3-2.07,13.68-.2,8.45,0,16.61,3.27,23.54,7.94,3,2.77,6.85,4.67,8.89,8.35,4.65,4.91,7.36,11.29,9.48,17.63,1,4.74,2.24,9.51,1.86,14.4q0,120,0,240c-.74,29.74-10.3,61-32.77,81.63C944.41,600.7,916,609.4,888.49,608.5c-9-.1-18.1.6-26.9-1.57-2.5-.71-5-1.23-7.57-1.78-8.07-3.49-16.53-7-22.54-13.68-5.59-5.34-8.58-12.68-10.41-20.05,0-6.28-.71-12.67.88-18.82.93-4.7,3.4-8.86,5.54-13.08a40.08,40.08,0,0,1,26-17.22c4.91-1.3,10-.53,15-.7,6.76-.69,13.79-1.65,19.61-5.49a25.55,25.55,0,0,0,9.49-15.63c.76-3.31,1.2-6.66,1.89-10,.17-3.68-.28-7.4.86-11q.11-112.56,0-225.11a8,8,0,0,1,.72-3.53C903.73,231.16,920.79,214.88,940.4,212.37Z" transform="translate(-23.51 -15.51)"/><path class="cls-2" d="M1168.89,212c3.76-1.13,7.72-.45,11.58-.65s7.3,1.34,11.06.89c29,2.26,57.34,13.72,79.27,32.93,6,4.58,10.62,10.64,15.59,16.26a132.92,132.92,0,0,1,22.26,41.94c1.64,7,4,13.94,4.63,21.19,1.08,4.22.34,8.63,1.5,12.85.16,8.31.55,16.88-2.42,24.79-3.17,9.69-9.65,18.47-18.57,23.56-11.27,7.39-25.2,8.75-38.32,8.48q-63.12,0-126.23,0c3.9,6.71,8.34,13.33,14.8,17.87,6.11,5,13.68,7.54,21,10.17,7.44,1.22,14.86,3.22,22.48,2.73,19.35.78,38.66-3.56,56.41-11.17,17-6.95,38.78-.07,47.42,16.41,4.75,8.19,5.73,18,4.18,27.17-1.07,7.56-5.31,14.24-10.26,19.88-14.71,13-33.64,19.64-52.22,24.91-11,2.48-22.23,4.86-33.57,4.92-4.58,1.2-9.31.63-14,.75-2.7,0-5.43.24-8.06-.4-3.67-1-7.53.13-11.2-.82-21.11-2.37-41.93-8.29-60.7-18.34-12.29-6.8-24.26-14.64-33.91-25a131.9,131.9,0,0,1-33.41-50.88c-4.93-12.1-7.18-25.06-8.82-38,.48-7.67-2.27-15.37-.06-23-.37-6.86,1.17-13.54,2-20.32a23.45,23.45,0,0,0,.89-4.71c1.42-8.06,4.59-15.66,6.94-23.48,5.22-12.41,11.53-24.49,19.88-35.11a194.07,194.07,0,0,1,14-16c7.1-6,14-12.22,22-17.06A148.24,148.24,0,0,1,1168.89,212Zm-1.57,77.4c-9.88,1-18.53,6.62-25.92,12.92a65.31,65.31,0,0,0-15.64,27.74c32,.26,64,0,95.94.11,0-1.63,0-3.26-.07-4.88a22.13,22.13,0,0,1-1-4c-2.07-7.59-5.89-14.88-11.94-20-7.38-7.79-18.07-11.65-28.6-12.51C1175.82,287.46,1171.57,289.13,1167.32,289.43Z" transform="translate(-23.51 -15.51)"/><path class="cls-2" d="M1377,214.07c5.09-1.15,10.23-2,15.42-2.71,10.42.49,21.22,3,29.61,9.51,6.19,5,11.7,11.27,14.52,18.86,4.69-5.27,10.92-8.78,16.85-12.46A116.69,116.69,0,0,1,1506.26,212c7-1.72,14.16,0,21.21.24,19.35,1.85,38.58,8.4,54,20.46,23.82,18.1,37.21,47.75,39.36,77.16a7.64,7.64,0,0,1,.79,3.59q-.07,75.51,0,151c-1.42,19.23-15.83,36.89-34.71,41.48-15.93,4.33-34.21,1-46.61-10.17a14.58,14.58,0,0,1-4.61-4.83c-5.81-7.23-10.3-16-10.78-25.38a33.69,33.69,0,0,1-.71-4.05q0-62.52,0-125c-1.32-9-4.26-18.28-11-24.68a37.14,37.14,0,0,0-29.68-11.57,35.38,35.38,0,0,0-24.65,7.55c-7.54,4.9-11.62,13.45-14.09,21.81-1.37,3.82-.85,7.91-.9,11.88,0,39,.06,78.05,0,117.07-.18.5-.53,1.52-.7,2,.57,14.94-7.56,29.3-19.29,38.19-17.18,12-42.25,12.32-59-.65-9.06-6.66-15.84-16.88-17.66-28a14,14,0,0,1-.86-5.13c-1.13-2.34-.64-5-.7-7.47q0-96.52,0-193c-.44-8.23,1.24-16.47,3.93-24.21,3.87-8.65,9.87-16.69,18.18-21.5C1370.79,217.17,1373.89,215.6,1377,214.07Z" transform="translate(-23.51 -15.51)"/><path class="cls-2" d="M1691.35,213.91c4.2-1.51,8.7-1.65,13.07-2.47,3.76-.58,7.42.74,11.15,1A42.91,42.91,0,0,1,1739,223.14c4.38,2.88,7.14,7.5,10,11.81a38,38,0,0,1,5.4,13.46c.67,2.25.39,4.69,1.34,6.88.18,68.73,0,137.47.1,206.2-.08,2.75-1.09,5.38-1,8.16a53.77,53.77,0,0,1-9.37,20.56c-6,7.89-15.08,12.88-24.41,15.85-17.58,4.79-37.92,0-50.33-13.63-6.85-6.95-10.33-16.38-12.16-25.79-.21-69.7,0-139.41-.11-209.11C1658.42,238,1672.29,219,1691.35,213.91Z" transform="translate(-23.51 -15.51)"/><path class="cls-3" d="M380,249.14c12.1-3.3,24.7-1.85,37.07-2.22q0,106.79,0,213.55c.33,32.2-21.35,63.06-51.54,74.08-8.62,3.51-17.88,4.67-27.08,5.35H255.52c-2.63-.12-5.45.46-7.89-.76,11.83-3.38,23.47-7.8,33.63-14.87,17.14-11.84,30.08-30.13,34.45-50.57A192.5,192.5,0,0,0,319,450.18c.21-44.23-.25-88.46.29-132.68,1.91-11.12,5.21-22.12,11.2-31.78A80,80,0,0,1,380,249.14Z" transform="translate(-23.51 -15.51)"/><path class="cls-4" d="M231.8,427.8c6.89.07,13.78-.07,20.68,0,19.22-.53,38.15,8.67,50.63,23.14,4.59,4.91,7.78,10.86,11.08,16.66l-.26.63c-4.63,10.81-11.74,20.43-19.64,29.07-7.52,8-17.18,13.68-27.21,18-7.76,3.28-16.26,3.89-24.57,4.43-2.43.2-5-.17-7.31.67-1.85.94-1.52,3.41-1.74,5.14,0,4.71-1.14,10.37,3.08,13.73-1.57,0-3.13,0-4.7,0Q231.87,483.53,231.8,427.8Z" transform="translate(-23.51 -15.51)"/><path class="cls-5" d="M313.93,468.24a9.16,9.16,0,0,1,1.78,5.45c-4.37,20.44-17.31,38.73-34.45,50.57-10.16,7.07-21.8,11.49-33.63,14.87-3.69.39-7.4-.12-11.09.11-4.22-3.36-3.06-9-3.08-13.73.22-1.73-.11-4.2,1.74-5.14,2.33-.84,4.88-.47,7.31-.67,8.31-.54,16.81-1.15,24.57-4.43,10-4.28,19.69-10,27.21-18C302.19,488.67,309.3,479.05,313.93,468.24Z" transform="translate(-23.51 -15.51)"/></svg>