<svg id="Layer_1" data-name="Layer 1" xmlns="http://www.w3.org/2000/svg" viewBox="0 0 615 946"><defs><style>.cls-1{fill:#ffcc09;}.cls-2{fill:#fff;}.cls-3{fill:#e9e9ee;}.cls-4{fill:#3f3356;}</style></defs><path class="cls-1" d="M148.54,0H466.7c1.84,1.13,4.05,1,6.12,1.29a29.76,29.76,0,0,0,6,1c2.06.57,4.19.88,6.27,1.45l2.8.53c1.69.54,3.43,1,5.13,1.47l1.9.55c1.69.53,3.41.94,5.11,1.46l1.92.48c1.3.53,2.62,1,3.93,1.54,1.65.7,3.33,1.34,5,2,2,.85,4.11,1.62,6.16,2.45,1.6.87,3.23,1.69,4.85,2.53l4,1.94c2.76,1.44,5.33,3.25,8.15,4.6,1.32.74,2.61,1.53,3.89,2.36,1,.66,2,1.35,3,2s2,1.3,3,2c1.72,1.2,3.34,2.54,5.1,3.69,1.26,1.1,2.52,2.21,3.8,3.28,3.08,1.84,5.12,5,8.24,6.74a131,131,0,0,1,10,10c1.58,2.67,4,4.69,6,7a36.17,36.17,0,0,0,4,5.06c1.18,1.76,2.52,3.4,3.7,5.16l1.35,1.85c.84,1.38,1.76,2.72,2.64,4.08s1.65,2.59,2.42,3.92,1.7,2.75,2.55,4.13c1,2,2,4,3,6,.67,1.33,1.33,2.67,2,4l1.06,2c1.06,2.31,1.94,4.69,2.9,7,.66,1.66,1.31,3.34,2,5,.37,1,.73,1.94,1.08,2.92s.65,2,1,3,.69,2,1,3c.47,1.68.85,3.38,1.34,5.06l.68,1.85c.4,1.64.65,3.31,1,5,.53,2.06.83,4.17,1.35,6.24a29.47,29.47,0,0,0,1.13,5.09c.28,2.67-.17,5.51,1.05,8,.49,4.09-.65,8.45,1.15,12.32V455.2c-2.27,3.82.14,8.57-1.81,12.51-.16,2.19-.23,4.39-.4,6.59-.8,2.37-.86,4.9-1.43,7.33-.32,1.65-.59,3.32-1,5-.18.46-.52,1.38-.7,1.84-.38,1.33-.69,2.68-1,4-.5,1.69-.89,3.41-1.39,5.1-.14.47-.4,1.42-.54,1.89q-.57,1.51-1.08,3.06c-.46,1.31-.88,2.65-1.32,4s-1,2.75-1.57,4.11c-.79,2-1.56,3.93-2.46,5.85q-1,2-2.05,4c-1.31,2.67-2.66,5.33-4,8-1.22,2.4-2.71,4.65-4,7-.63,1-1.3,2-1.95,3-.88,1.35-1.79,2.67-2.65,4-.7,1-1.37,2-2,3s-1.35,2-2,3.1a36.24,36.24,0,0,0-4.06,5,41.58,41.58,0,0,0-5,6q-6.72,7.26-14,14c-2.67,1.58-4.72,4-7,6-1.81,1.13-3.45,2.48-5.21,3.67l-1.87,1.31c-1.74,1.17-3.36,2.49-5.11,3.64-1.71.91-3.34,2-5,3q-1.89,1.29-3.84,2.47A50.76,50.76,0,0,0,522,598.7c-1.38.44-2.73.95-4.07,1.46-.94.54-1.88,1.09-2.81,1.65-1.67.66-3.34,1.28-5,1.94-1.35.56-2.71,1.11-4.08,1.62l-3,1c-1,.33-2,.65-3,1-1.34.5-2.68,1-4,1.48l-1.93.5c-1.7.52-3.43.94-5.13,1.48-.94.17-1.87.36-2.79.55-1.64.46-3.33.73-5,1.05s-3.33.68-5,1c-3,1-6.41.11-9.37,1.45-2.52.16-5,.19-7.57.36a8.72,8.72,0,0,1-3.65.82H158.4a9.06,9.06,0,0,1-3.62-.81c-2.67-.24-5.45.08-8-1-2.33-.22-4.73-.17-7-.94a45.91,45.91,0,0,1-6-.94c-1.65-.32-3.3-.59-4.93-1-1.34-.34-2.67-.66-4-1s-2.69-.65-4-1l-1.87-.59c-1.64-.52-3.32-.92-5-1.43-1.66-.73-3.36-1.36-5.06-2-1.4-.47-2.77-1-4.14-1.52-2-.8-4-1.58-5.85-2.54s-4.08-1.65-6.13-2.44c-2.39-1.26-4.71-2.64-7-4.12L83,593.33c-1-.65-2-1.34-3-2-1.36-.87-2.69-1.78-4-2.63-1-.7-2-1.38-3-2s-2-1.35-3.07-2L68,583.38c-2.13-1.5-4-3.33-6.16-4.75a41,41,0,0,0-6-5q-7.26-6.72-14-14a40.41,40.41,0,0,0-5-6c-1.42-2.18-3.25-4-4.75-6.16-.32-.48-.95-1.44-1.27-1.91-1.17-1.73-2.49-3.35-3.63-5.09-.74-1.36-1.54-2.69-2.38-4s-1.8-2.67-2.67-4c-.45-1-.89-2-1.34-2.93a48.52,48.52,0,0,0-3-5.06c-.47-1.38-1-2.73-1.51-4.07l-1.08-2c-.5-1-1-1.91-1.52-2.85-.83-2.06-1.6-4.13-2.48-6.16-.37-1-.72-2-1.06-2.94-.46-1.32-.88-2.66-1.34-4q-.53-1.54-1.08-3.06c-.13-.48-.4-1.42-.53-1.9-.52-1.69-.92-3.41-1.43-5.1-.16-.47-.47-1.4-.62-1.87-.52-2.06-.83-4.15-1.37-6.19l-.63-2.76c-.61-2.43-.67-5-1.46-7.34-.25-2.8.07-5.73-1.21-8.32V148.8c1.51-2.43.86-5.39,1.19-8.08.83-1.92.83-4,1.07-6.07.41-1.35.74-2.73,1.07-4.11.5-1.7.89-3.44,1.41-5.14l.51-2.82c.54-1.7,1-3.43,1.48-5.13.13-.48.37-1.45.5-1.93.51-1.32,1-2.67,1.48-4q.45-1.51.93-3c.35-1,.72-1.95,1.09-2.92.88-2,1.65-4.09,2.49-6.13,1.06-2,2.07-4,3.06-6,.67-1.33,1.34-2.66,2-4,.82-1.62,1.62-3.25,2.42-4.88.84-1.38,1.73-2.73,2.55-4.12s1.57-2.65,2.42-3.93,1.79-2.7,2.64-4.08l1.35-1.85c1.17-1.76,2.52-3.4,3.68-5.17,1.09-1.27,2.21-2.52,3.28-3.8,1.84-3.08,5-5.13,6.74-8.24,3.59-3.73,6.92-7.86,11.28-10.72,2.3-2,4.34-4.38,7-6,1.28-1.08,2.53-2.19,3.8-3.28,1.75-1.16,3.38-2.5,5.09-3.71,1-.66,2.06-1.33,3.11-1.95l1.8-1.41c1.68-1,3.32-2.06,5-3,1.39-.82,2.74-1.72,4.12-2.57,2.3-1.12,4.6-2.25,6.88-3.41l4-2,2-1.08c1.66-.67,3.33-1.3,5-2,2-.87,4.12-1.65,6.16-2.53C110,9.36,111,9,112,8.66s2-.68,3-1c1.68-.48,3.39-.87,5.06-1.37l1.89-.59c1.69-.5,3.41-.88,5.1-1.37,1.36-.32,2.73-.63,4.08-1a36.73,36.73,0,0,0,5.06-1.07c1.54-.18,3.09-.32,4.64-.5C143.35,1,146.06,1,148.54,0ZM296.17,126.5c-5.23,12.2-6.28,26.36-2,39,.32,1,.64,2,1,3,6.57,19.21,24.42,33.56,44.33,36.74,24.75,4.5,51.38-9.65,61.39-32.73.68-1.67,1.35-3.34,2-5a57.74,57.74,0,0,0-1-40c-6.59-17.61-23.05-30.77-41.32-34.56-5.91-1.44-12-.9-18.06-.88C322.4,94.11,303.75,107.78,296.17,126.5Zm29.75,123c-11,9.29-20.13,21.2-24.74,35-.34,1-.68,2-1,3A87.47,87.47,0,0,0,296.49,307q0,64,0,128a223.09,223.09,0,0,1-3.33,22.71,24.91,24.91,0,0,1-1.61-2.89c-9.81-24.61-35.35-42.62-62.09-41.84-6.66,0-13.33,0-20,0,.07,37-.13,74,.1,111,2.88-.59,5.86-1.53,8.82-.8a12.12,12.12,0,0,0,6.7.1,18,18,0,0,0,3.35.53h83.08c20.6.35,41.43-7,56.62-21.08,10.61-10.11,19.11-22.89,22.66-37.22,1.49-5.73,2.95-11.57,2.69-17.53q-.09-108,0-215.95c-8.35.09-16.7-.18-25,.17A81.89,81.89,0,0,0,325.92,249.53Z" transform="translate(-0.5)"/><path class="cls-2" d="M296.17,126.5c7.58-18.72,26.23-32.39,46.3-34.44,6,0,12.15-.56,18.06.88,18.27,3.79,34.73,17,41.32,34.56a57.74,57.74,0,0,1,1,40c-.63,1.69-1.3,3.36-2,5-10,23.08-36.64,37.23-61.39,32.73-19.91-3.18-37.76-17.53-44.33-36.74-.33-1-.65-2-1-3C289.89,152.86,290.94,138.7,296.17,126.5Z" transform="translate(-0.5)"/><path class="cls-2" d="M325.92,249.53a81.89,81.89,0,0,1,42.54-17.32c8.34-.35,16.69-.08,25-.17q0,108,0,216c.26,6-1.2,11.8-2.69,17.53-3.55,14.33-12.05,27.11-22.66,37.22-15.19,14.07-36,21.43-56.62,21.08H228.47a18,18,0,0,1-3.35-.53,99.52,99.52,0,0,0,32.72-13.93,85.3,85.3,0,0,0,35.35-51.63A223.09,223.09,0,0,0,296.52,435q-.06-64,0-128a87.47,87.47,0,0,1,3.69-19.45c.32-1,.66-2,1-3C305.79,270.73,314.89,258.82,325.92,249.53Z" transform="translate(-0.5)"/><path class="cls-3" d="M209.5,413c6.66,0,13.33,0,20,0,26.74-.78,52.28,17.23,62.09,41.84a24.91,24.91,0,0,0,1.61,2.89,85.3,85.3,0,0,1-35.35,51.63,99.52,99.52,0,0,1-32.72,13.93,12.12,12.12,0,0,1-6.7-.1c-3-.73-5.94.21-8.82.8C209.37,487,209.57,450,209.5,413Z" transform="translate(-0.5)"/><path class="cls-4" d="M56.05,653.84c10-2.31,21,0,28.78,6.77,11.42,9.38,13.85,27.81,4.91,39.65-8.85,12.65-27.45,16.61-40.94,9.38-10.17-5-17-16.24-16.22-27.63C32.74,668.65,43.12,656.67,56.05,653.84Z" transform="translate(-0.5)"/><path class="cls-4" d="M136.9,653.55c8.33-1.42,17.33-.17,24.39,4.68A29.77,29.77,0,0,1,174.92,681c1.51,15.4-11.13,30-26.27,31.77-15.4,2.86-32.44-7.21-35.64-22.89-.58-6.43-1-13.34,2-19.28A31.37,31.37,0,0,1,136.9,653.55Z" transform="translate(-0.5)"/><path class="cls-4" d="M549.2,658.06a32.25,32.25,0,0,1,26.88,11.33c3.32,3.94,5.18,8.83,6.84,13.64,2.1,10.78-3.22,22-11.7,28.67-10.62,8.33-26.58,8.93-37.74,1.3a29.25,29.25,0,0,1-12.54-30.91C523.25,668.73,536,658.84,549.2,658.06Z" transform="translate(-0.5)"/><path class="cls-4" d="M61.7,733.15c7.42-.59,15.33,1.65,20.68,7,5.43,5,8,12.52,8,19.8q0,48,0,96.06c0,8.37.77,17.46-4.08,24.8-6.81,11.08-22.31,14.74-33.81,9.24-9.13-4.18-14.95-14.06-14.81-24q-.06-53,0-106.08a28.1,28.1,0,0,1,5.54-17.22C47.53,737,54.59,733.7,61.7,733.15Z" transform="translate(-0.5)"/><path class="cls-4" d="M124,741.46c9.39-10.51,27.49-11.29,37.8-1.71A26.46,26.46,0,0,1,170,759q0,60.49,0,121c.63,15-1.6,30.73-10,43.5s-23,20.81-38,22.55H98a31.55,31.55,0,0,1-17.27-8.22c-10.31-10.1-6.86-30.22,6.6-35.86,7.1-3.7,15.72-.37,22.7-4.39,4.14-2.14,5.85-6.87,6.58-11.19A121.54,121.54,0,0,0,117.66,867q0-54.54,0-109.09A25.05,25.05,0,0,1,124,741.46Z" transform="translate(-0.5)"/><path class="cls-4" d="M212,753.5c25.47-23.33,66.66-27.3,96-9,18.76,11.46,31.06,32.46,32.34,54.36,1.28,8.11,0,17.07-5.54,23.44s-14.07,9-22.27,9.14c-24,.09-47.89-.12-71.84.1a30.75,30.75,0,0,0,21.72,15.42,69.41,69.41,0,0,0,38.5-4.39c7.37-3.5,16.89-2.55,23,3a21.35,21.35,0,0,1,5.9,22c-2,7.14-8.35,11.83-14.67,15.05-30.91,15.32-70.61,13.19-98.42-7.79C205.05,865.57,195.55,853.24,191,839,181,809.64,188.76,774.45,212,753.5Zm38.67,25.76c-6.08,4-9.54,10.74-12,17.39,17.33.3,34.66.07,52,.11-.43-5.62-2.59-11.26-6.77-15.15C275.33,773,260.43,772.09,250.68,779.26Z" transform="translate(-0.5)"/><path class="cls-4" d="M363,742.45c8.66-11.41,27.48-12.58,37.59-2.49a30.48,30.48,0,0,1,5.78,8c10.82-10,25.67-14.38,40.14-15,12.76,0,26.06,2.76,36.46,10.54,14.84,10.4,22.21,28.79,22.9,46.46q0,39,0,78a25.27,25.27,0,0,1-12.38,21c-11.21,6.62-27.5,4.08-35-6.91-3.72-4.84-5.1-11-5.17-17q0-31.51,0-63c.06-6.39-2.67-13-7.85-16.84-5.79-4.79-14.08-5.6-21.12-3.55-8.7,2.51-14.58,11.48-14.25,20.38.08,19.68,0,39.36,0,59,0,4.66-.12,9.42-1.54,13.9a25.42,25.42,0,0,1-20,17.15c-11.41,2.42-24-3.68-28.78-14.35-2.88-6.13-2.71-13.06-2.59-19.67,0-31.69,0-63.37,0-95.06C357,755.81,358.21,748.11,363,742.45Z" transform="translate(-0.5)"/><path class="cls-4" d="M546,733.65c7.57-1.59,16-.06,22.13,4.8A25.81,25.81,0,0,1,578,759q0,51.54,0,103.08c.45,7.33-.91,15.06-5.56,21-8.19,10.39-24.4,12.55-35.34,5.33a24.65,24.65,0,0,1-11.44-20.26q0-55.54,0-111.08C525.92,745.74,534.82,735.4,546,733.65Z" transform="translate(-0.5)"/></svg>